<?xml version="1.0" encoding="UTF-8"?><svg id="Ebene_2" xmlns="http://www.w3.org/2000/svg" viewBox="0 0 45.38 45.38"><defs><style>.cls-1{fill:#fff;}.cls-2{fill:#ff9e1b;}</style></defs><g id="Ebene_1-2"><g><circle class="cls-2" cx="22.69" cy="22.69" r="22.69"/><path class="cls-1" d="M31.01,17.68c.07-3.14-1.73-5.97-4.66-7.23-2-.86-4.31-.79-6.27,.16-2.7,1.31-4.32,3.9-4.32,6.87v17.8c0,.22,.26,.32,.41,.17l1.66-1.66c.21-.21,.32-.49,.32-.78v-15.34c0-2,1.05-3.92,2.83-4.84,2.01-1.04,4.38-.71,6.1,.95,.42,.41,.77,.89,1.01,1.43,.97,2.12,.49,4.45-1.05,5.98l-5.1,5.05c-.18,.18-.28,.42-.28,.68v2.37c0,.23,.27,.34,.44,.18l6.49-6.43c1.44-1.43,2.36-3.33,2.4-5.36Z"/></g></g></svg>